<?xml version="1.0" standalone="no"?><!DOCTYPE svg PUBLIC "-//W3C//DTD SVG 1.1//EN" "http://www.w3.org/Graphics/SVG/1.1/DTD/svg11.dtd"><svg t="1486874956397" class="icon" style="" viewBox="0 0 1024 1024" version="1.1" xmlns="http://www.w3.org/2000/svg" p-id="1677" xmlns:xlink="http://www.w3.org/1999/xlink" width="200" height="200"><defs><style type="text/css"></style></defs><path d="M446.224028 99.380125h16.511069v264.177107h-16.511069zM330.646544 99.380125h33.022138v264.177107h-33.022138z" fill="#D10D0D" p-id="1678"></path><path d="M446.224028 99.380125h33.022138v264.177107h-33.022138z" fill="#D10D0D" p-id="1679"></path><path d="M347.157613 181.935471h115.577484v16.51107h-115.577484zM347.157613 264.490817h115.577484v16.51107h-115.577484z" fill="#821717" p-id="1680"></path><path d="M545.290443 99.380125h33.022139v264.177107h-33.022139zM660.867928 99.380125h33.022138v264.177107h-33.022138z" fill="#D10D0D" p-id="1681"></path><path d="M561.801512 181.935471h115.577485v16.51107h-115.577485zM561.801512 264.490817h115.577485v16.51107h-115.577485zM949.811638 132.402264h-875.086667l-49.533207-132.088554h974.153082z" fill="#821717" p-id="1682"></path><path d="M281.113336 1024h-160.157371l115.577484-924.619875h44.579887z" fill="#D10D0D" p-id="1683"></path><path d="M281.113336 99.380125v924.619875h-165.110692" fill="#821717" p-id="1684"></path><path d="M743.423274 1024h160.157371l-115.577485-924.619875h-44.579886z" fill="#D10D0D" p-id="1685"></path><path d="M743.423274 1024h160.157371l-115.577485-924.619875" fill="#821717" p-id="1686"></path><path d="M264.602267 347.046163h495.332076v33.022139h-495.332076z" fill="#D10D0D" p-id="1687"></path><path d="M759.934343 347.046163v33.022139h-495.332076" fill="#821717" p-id="1688"></path><path d="M264.602267 429.601509h495.332076v33.022139h-495.332076z" fill="#D10D0D" p-id="1689"></path><path d="M759.934343 429.601509v33.022139h-495.332076" fill="#821717" p-id="1690"></path><path d="M68.120544 54.800239c13.208855 34.673245 16.511069 72.648704 6.604427 77.602025-9.906642 3.302214-31.371031-28.068818-44.579886-62.742063-14.859962-34.673245-14.859962-64.39317-4.953321-69.346491 9.906642-3.302214 29.719925 19.813283 42.92878 54.486529z" fill="#D10D0D" p-id="1691"></path><path d="M956.416066 54.800239c-13.208855 34.673245-18.162176 74.299811-6.604428 77.602025 9.906642 3.302214 31.371031-28.068818 44.579887-62.742063s14.859962-66.044277 4.953321-69.346491c-9.906642-3.302214-29.719925 19.813283-42.92878 54.486529z" fill="#5E0404" p-id="1692"></path><path d="M408.248569 41.591383m-8.255535 0a8.255535 8.255535 0 1 0 16.51107 0 8.255535 8.255535 0 1 0-16.51107 0Z" fill="#D10D0D" p-id="1693"></path><path d="M459.432883 41.591383m-8.255534 0a8.255535 8.255535 0 1 0 16.511069 0 8.255535 8.255535 0 1 0-16.511069 0Z" fill="#D10D0D" p-id="1694"></path><path d="M512.268305 41.591383m-8.255535 0a8.255535 8.255535 0 1 0 16.511069 0 8.255535 8.255535 0 1 0-16.511069 0Z" fill="#D10D0D" p-id="1695"></path><path d="M565.103726 41.591383m-8.255534 0a8.255535 8.255535 0 1 0 16.511069 0 8.255535 8.255535 0 1 0-16.511069 0Z" fill="#D10D0D" p-id="1696"></path><path d="M616.288041 41.591383m-8.255535 0a8.255535 8.255535 0 1 0 16.511069 0 8.255535 8.255535 0 1 0-16.511069 0Z" fill="#D10D0D" p-id="1697"></path><path d="M414.138893 676.025089l19.848369-19.846305 19.848369 19.846305-19.848369 19.848369zM413.816927 625.841758l19.86488-19.829794 19.829794 19.86488-19.86488 19.829794zM426.410745 578.201132c0-3.302214 3.302214-6.604428 6.604428-6.604428s6.604428 3.302214 6.604427 6.604428-3.302214 6.604428-6.604427 6.604428c-3.302214 1.651107-6.604428-1.651107-6.604428-6.604428zM426.410745 531.970138c0-3.302214 3.302214-6.604428 6.604428-6.604427s6.604428 3.302214 6.604427 6.604427-3.302214 6.604428-6.604427 6.604428-6.604428-3.302214-6.604428-6.604428zM426.410745 485.739144c0-3.302214 3.302214-6.604428 6.604428-6.604427s6.604428 3.302214 6.604427 6.604427-3.302214 6.604428-6.604427 6.604428-6.604428-3.302214-6.604428-6.604428zM493.16087 676.095261l19.846305-19.848369 19.848369 19.848369-19.848369 19.846305zM492.92146 625.930505l19.86488-19.831858 19.829794 19.86488-19.86488 19.829794zM505.663877 578.201132c0-3.302214 3.302214-6.604428 6.604428-6.604428s6.604428 3.302214 6.604428 6.604428-3.302214 6.604428-6.604428 6.604428c-3.302214 1.651107-6.604428-1.651107-6.604428-6.604428zM505.663877 531.970138c0-3.302214 3.302214-6.604428 6.604428-6.604427s6.604428 3.302214 6.604428 6.604427-3.302214 6.604428-6.604428 6.604428-6.604428-3.302214-6.604428-6.604428zM505.663877 485.739144c0-3.302214 3.302214-6.604428 6.604428-6.604427s6.604428 3.302214 6.604428 6.604427-3.302214 6.604428-6.604428 6.604428-6.604428-3.302214-6.604428-6.604428zM572.182847 676.22735l19.846305-19.846305 19.848369 19.846305-19.848369 19.848369zM571.895967 626.017188l19.86488-19.833922 19.829795 19.866944-19.864881 19.829795zM584.917009 578.201132c0-3.302214 3.302214-6.604428 6.604428-6.604428s6.604428 3.302214 6.604428 6.604428-3.302214 6.604428-6.604428 6.604428c-3.302214 1.651107-6.604428-1.651107-6.604428-6.604428zM584.917009 531.970138c0-3.302214 3.302214-6.604428 6.604428-6.604427s6.604428 3.302214 6.604428 6.604427-3.302214 6.604428-6.604428 6.604428-6.604428-3.302214-6.604428-6.604428zM584.917009 485.739144c0-3.302214 3.302214-6.604428 6.604428-6.604427s6.604428 3.302214 6.604428 6.604427-3.302214 6.604428-6.604428 6.604428-6.604428-3.302214-6.604428-6.604428zM297.624405 776.333962c0 9.906642-6.604428 16.511069-16.511069 16.511069h-148.599622c-9.906642 0-16.511069-6.604428-16.51107-16.511069s6.604428-16.511069 16.51107-16.511069h148.599622c9.906642 0 16.511069 6.604428 16.511069 16.511069zM297.624405 858.889308c0 9.906642-6.604428 16.511069-16.511069 16.511069h-148.599622c-9.906642 0-16.511069-6.604428-16.51107-16.511069s6.604428-16.511069 16.51107-16.511069h148.599622c9.906642 0 16.511069 6.604428 16.511069 16.511069zM908.533965 776.333962c0-9.906642-6.604428-16.511069-16.511069-16.511069h-148.599622c-9.906642 0-16.511069 6.604428-16.51107 16.511069s6.604428 16.511069 16.51107 16.511069h148.599622c9.906642 0 16.511069-6.604428 16.511069-16.511069zM908.533965 858.889308c0-9.906642-6.604428-16.511069-16.511069-16.511069h-148.599622c-9.906642 0-16.511069 6.604428-16.51107 16.511069s6.604428 16.511069 16.51107 16.511069h148.599622c9.906642 0 16.511069-6.604428 16.511069-16.511069z" fill="#FFC610" p-id="1698"></path></svg>